<svg width="411" height="196" viewBox="0 0 411 196" fill="none" xmlns="http://www.w3.org/2000/svg">
<g filter="url(#filter0_ddddd_4103_162)">
<rect x="23" y="4" width="365" height="112" rx="56" fill="#202024"/>
<g filter="url(#filter1_f_4103_162)">
<path d="M137.75 38.0527C132.417 30.2847 121.988 26.3455 106.758 26.3455H106.734C91.5272 26.3497 81.124 30.2907 75.8138 38.0587C71.3681 44.5609 70.7986 52.8509 70.7986 59.3455C70.7986 65.8401 71.3681 74.1292 75.8138 80.6314C81.124 88.3986 91.5272 92.3395 106.734 92.3455H106.764C121.993 92.3455 132.418 88.4071 137.751 80.639C142.224 74.1224 142.799 65.8367 142.799 59.3463C142.799 52.856 142.226 44.5703 137.752 38.0544H137.751L137.75 38.0527Z" fill="url(#paint0_linear_4103_162)"/>
</g>
<path d="M136.758 38.6792C131.596 31.1603 121.501 27.3469 106.76 27.3469H106.735C92.0163 27.3511 81.9466 31.1654 76.8074 38.6843C72.5045 44.9783 71.953 53.0022 71.953 59.2885C71.953 65.5748 72.5045 73.5979 76.8074 79.8918C81.9475 87.4099 92.0172 91.2251 106.736 91.2302H106.764C121.505 91.2302 131.595 87.4176 136.757 79.8986C141.088 73.5911 141.643 65.5706 141.643 59.2885C141.643 53.0064 141.088 44.9868 136.758 38.6792Z" fill="#09090A"/>
<g opacity="0.9">
<rect x="104.75" y="53.4094" width="22.5" height="22.5" rx="11.25" fill="#42A5F5"/>
<path d="M112.59 60.4094L112.343 61.7083H117.507L117.34 62.5483H112.18L111.929 63.8433H117.093L116.804 65.325L114.722 66.0289L112.917 65.325L113.042 64.6872H111.773L111.473 66.2428L114.456 67.4094L117.895 66.2428L118.351 63.8978L118.442 63.4272L119.027 60.4094H112.59Z" fill="white"/>
</g>
<g opacity="0.9">
<rect x="86.75" y="53.4094" width="22.5" height="22.5" rx="11.25" fill="#E44D26"/>
<path fill-rule="evenodd" clip-rule="evenodd" d="M95.6179 62.9114H97.2494H97.2537H99.7897H100.123L100.093 63.2433L99.8022 66.4977L99.7836 66.7065L97.2537 67.4079L97.2494 67.4088L97.248 67.4094L94.7158 66.7065L94.5426 64.7657H95.7837L95.8716 65.7514L97.2482 66.1232L97.2494 66.1227L97.2537 66.1217L98.6281 65.7507L98.7715 64.1475H97.2537H97.2494H94.4874L94.1837 60.741L94.154 60.4094H97.2494H97.2537H100.346L100.316 60.741L100.26 61.3678L100.235 61.6455H97.2537H97.2494H95.5049L95.6179 62.9114Z" fill="white"/>
</g>
<g opacity="0.9">
<rect x="95.75" y="38.4094" width="22.5" height="22.5" rx="11.25" fill="#E5D130"/>
<path d="M102.243 50.6806L103.174 50.1268C103.353 50.4399 103.516 50.7047 103.908 50.7047C104.283 50.7047 104.52 50.561 104.52 49.9983V46.1772H105.662V50.0141C105.662 51.178 104.969 51.7079 103.957 51.7079C103.599 51.7269 103.244 51.6389 102.938 51.4555C102.633 51.2721 102.39 51.0018 102.244 50.6803L102.243 50.6806ZM106.283 50.5598L107.213 50.0299C107.317 50.2363 107.477 50.4099 107.676 50.5306C107.876 50.6513 108.105 50.7142 108.339 50.7122C108.813 50.7122 109.114 50.4793 109.114 50.1581C109.114 49.7729 108.804 49.6363 108.282 49.4106L107.997 49.2916C107.173 48.9466 106.626 48.513 106.626 47.5978C106.626 46.7548 107.279 46.1128 108.299 46.1128C108.63 46.0892 108.96 46.1619 109.249 46.3218C109.537 46.4817 109.772 46.7217 109.923 47.0119L109.033 47.574C108.975 47.4299 108.873 47.3067 108.742 47.2207C108.611 47.1347 108.456 47.09 108.299 47.0924C108.23 47.0855 108.161 47.0929 108.095 47.1139C108.029 47.1349 107.969 47.1692 107.918 47.2145C107.866 47.2598 107.825 47.3152 107.796 47.3771C107.768 47.439 107.753 47.506 107.752 47.574C107.752 47.9112 107.964 48.0475 108.453 48.2562L108.739 48.3767C109.71 48.7861 110.257 49.2036 110.257 50.1426C110.257 51.1541 109.449 51.7081 108.364 51.7081C107.303 51.7081 106.618 51.2105 106.283 50.5601" fill="#09090A"/>
</g>
<path d="M170.08 76V46.2H189.48V50.4H174.8V59.36H187.88V63.56H174.8V76H170.08ZM200.329 76.48C198.702 76.48 197.275 76.12 196.049 75.4C194.822 74.6533 193.862 73.6267 193.169 72.32C192.502 70.9867 192.169 69.4533 192.169 67.72V54.36H196.689V67.32C196.689 68.3067 196.889 69.1733 197.289 69.92C197.689 70.6667 198.249 71.2533 198.969 71.68C199.689 72.08 200.515 72.28 201.449 72.28C202.409 72.28 203.249 72.0667 203.969 71.64C204.689 71.2133 205.249 70.6133 205.649 69.84C206.075 69.0667 206.289 68.16 206.289 67.12V54.36H210.769V76H206.489V71.76L206.969 72.32C206.462 73.6533 205.622 74.68 204.449 75.4C203.275 76.12 201.902 76.48 200.329 76.48ZM216.046 76V45.72H220.566V76H216.046ZM225.851 76V45.72H230.371V76H225.851ZM243.656 76.48C241.442 76.48 239.496 75.9333 237.816 74.84C236.162 73.7467 235.002 72.28 234.336 70.44L237.816 68.8C238.402 70.0267 239.202 71 240.216 71.72C241.256 72.44 242.402 72.8 243.656 72.8C244.722 72.8 245.589 72.56 246.256 72.08C246.922 71.6 247.256 70.9467 247.256 70.12C247.256 69.5867 247.109 69.16 246.816 68.84C246.522 68.4933 246.149 68.2133 245.696 68C245.269 67.7867 244.829 67.6267 244.376 67.52L240.976 66.56C239.109 66.0267 237.709 65.2267 236.776 64.16C235.869 63.0667 235.416 61.8 235.416 60.36C235.416 59.0533 235.749 57.92 236.416 56.96C237.082 55.9733 238.002 55.2133 239.176 54.68C240.349 54.1467 241.669 53.88 243.136 53.88C245.109 53.88 246.869 54.3733 248.416 55.36C249.962 56.32 251.056 57.6667 251.696 59.4L248.216 61.04C247.789 60 247.109 59.1733 246.176 58.56C245.269 57.9467 244.242 57.64 243.096 57.64C242.109 57.64 241.322 57.88 240.736 58.36C240.149 58.8133 239.856 59.4133 239.856 60.16C239.856 60.6667 239.989 61.0933 240.256 61.44C240.522 61.76 240.869 62.0267 241.296 62.24C241.722 62.4267 242.162 62.5867 242.616 62.72L246.136 63.76C247.922 64.2667 249.296 65.0667 250.256 66.16C251.216 67.2267 251.696 68.5067 251.696 70C251.696 71.28 251.349 72.4133 250.656 73.4C249.989 74.36 249.056 75.12 247.856 75.68C246.656 76.2133 245.256 76.48 243.656 76.48ZM265.484 76.24C263.218 76.24 261.458 75.6 260.204 74.32C258.951 73.04 258.324 71.24 258.324 68.92V58.44H254.524V54.36H255.124C256.138 54.36 256.924 54.0667 257.484 53.48C258.044 52.8933 258.324 52.0933 258.324 51.08V49.4H262.844V54.36H267.764V58.44H262.844V68.72C262.844 69.4667 262.964 70.1067 263.204 70.64C263.444 71.1467 263.831 71.5467 264.364 71.84C264.898 72.1067 265.591 72.24 266.444 72.24C266.658 72.24 266.898 72.2267 267.164 72.2C267.431 72.1733 267.684 72.1467 267.924 72.12V76C267.551 76.0533 267.138 76.1067 266.684 76.16C266.231 76.2133 265.831 76.24 265.484 76.24ZM278.62 76.48C277.153 76.48 275.86 76.2267 274.74 75.72C273.647 75.1867 272.793 74.4667 272.18 73.56C271.567 72.6267 271.26 71.5333 271.26 70.28C271.26 69.1067 271.513 68.0533 272.02 67.12C272.553 66.1867 273.367 65.4 274.46 64.76C275.553 64.12 276.927 63.6667 278.58 63.4L286.1 62.16V65.72L279.46 66.88C278.26 67.0933 277.38 67.48 276.82 68.04C276.26 68.5733 275.98 69.2667 275.98 70.12C275.98 70.9467 276.287 71.6267 276.9 72.16C277.54 72.6667 278.353 72.92 279.34 72.92C280.567 72.92 281.633 72.6533 282.54 72.12C283.473 71.5867 284.193 70.88 284.7 70C285.207 69.0933 285.46 68.0933 285.46 67V61.44C285.46 60.3733 285.06 59.5067 284.26 58.84C283.487 58.1467 282.447 57.8 281.14 57.8C279.94 57.8 278.887 58.12 277.98 58.76C277.1 59.3733 276.447 60.1733 276.02 61.16L272.26 59.28C272.66 58.2133 273.313 57.28 274.22 56.48C275.127 55.6533 276.18 55.0133 277.38 54.56C278.607 54.1067 279.9 53.88 281.26 53.88C282.967 53.88 284.473 54.2 285.78 54.84C287.113 55.48 288.14 56.3733 288.86 57.52C289.607 58.64 289.98 59.9467 289.98 61.44V76H285.66V72.08L286.58 72.2C286.073 73.08 285.42 73.84 284.62 74.48C283.847 75.12 282.953 75.6133 281.94 75.96C280.953 76.3067 279.847 76.48 278.62 76.48ZM305.545 76.48C303.385 76.48 301.465 75.9867 299.785 75C298.132 73.9867 296.812 72.6267 295.825 70.92C294.865 69.2133 294.385 67.28 294.385 65.12C294.385 62.9867 294.865 61.0667 295.825 59.36C296.785 57.6533 298.105 56.32 299.785 55.36C301.465 54.3733 303.385 53.88 305.545 53.88C307.012 53.88 308.385 54.1467 309.665 54.68C310.945 55.1867 312.052 55.8933 312.985 56.8C313.945 57.7067 314.652 58.76 315.105 59.96L311.145 61.8C310.692 60.68 309.958 59.7867 308.945 59.12C307.958 58.4267 306.825 58.08 305.545 58.08C304.318 58.08 303.212 58.3867 302.225 59C301.265 59.5867 300.505 60.4267 299.945 61.52C299.385 62.5867 299.105 63.8 299.105 65.16C299.105 66.52 299.385 67.7467 299.945 68.84C300.505 69.9067 301.265 70.7467 302.225 71.36C303.212 71.9733 304.318 72.28 305.545 72.28C306.852 72.28 307.985 71.9467 308.945 71.28C309.932 70.5867 310.665 69.6667 311.145 68.52L315.105 70.4C314.678 71.5467 313.985 72.5867 313.025 73.52C312.092 74.4267 310.985 75.1467 309.705 75.68C308.425 76.2133 307.038 76.48 305.545 76.48ZM319.523 76V45.72H324.043V66L322.283 65.56L333.123 54.36H338.763L330.603 63.04L339.123 76H333.923L326.323 64.52L329.003 64.16L322.603 70.96L324.043 67.96V76H319.523Z" fill="#E1E1E6"/>
</g>
<defs>
<filter id="filter0_ddddd_4103_162" x="0" y="0" width="411" height="196" filterUnits="userSpaceOnUse" color-interpolation-filters="sRGB">
<feFlood flood-opacity="0" result="BackgroundImageFix"/>
<feColorMatrix in="SourceAlpha" type="matrix" values="0 0 0 0 0 0 0 0 0 0 0 0 0 0 0 0 0 0 127 0" result="hardAlpha"/>
<feOffset/>
<feColorMatrix type="matrix" values="0 0 0 0 0 0 0 0 0 0 0 0 0 0 0 0 0 0 0.15 0"/>
<feBlend mode="normal" in2="BackgroundImageFix" result="effect1_dropShadow_4103_162"/>
<feColorMatrix in="SourceAlpha" type="matrix" values="0 0 0 0 0 0 0 0 0 0 0 0 0 0 0 0 0 0 127 0" result="hardAlpha"/>
<feOffset dy="4"/>
<feGaussianBlur stdDeviation="4"/>
<feColorMatrix type="matrix" values="0 0 0 0 0 0 0 0 0 0 0 0 0 0 0 0 0 0 0.15 0"/>
<feBlend mode="normal" in2="effect1_dropShadow_4103_162" result="effect2_dropShadow_4103_162"/>
<feColorMatrix in="SourceAlpha" type="matrix" values="0 0 0 0 0 0 0 0 0 0 0 0 0 0 0 0 0 0 127 0" result="hardAlpha"/>
<feOffset dy="14"/>
<feGaussianBlur stdDeviation="7"/>
<feColorMatrix type="matrix" values="0 0 0 0 0 0 0 0 0 0 0 0 0 0 0 0 0 0 0.13 0"/>
<feBlend mode="normal" in2="effect2_dropShadow_4103_162" result="effect3_dropShadow_4103_162"/>
<feColorMatrix in="SourceAlpha" type="matrix" values="0 0 0 0 0 0 0 0 0 0 0 0 0 0 0 0 0 0 127 0" result="hardAlpha"/>
<feOffset dy="32"/>
<feGaussianBlur stdDeviation="9.5"/>
<feColorMatrix type="matrix" values="0 0 0 0 0 0 0 0 0 0 0 0 0 0 0 0 0 0 0.08 0"/>
<feBlend mode="normal" in2="effect3_dropShadow_4103_162" result="effect4_dropShadow_4103_162"/>
<feColorMatrix in="SourceAlpha" type="matrix" values="0 0 0 0 0 0 0 0 0 0 0 0 0 0 0 0 0 0 127 0" result="hardAlpha"/>
<feOffset dy="57"/>
<feGaussianBlur stdDeviation="11.5"/>
<feColorMatrix type="matrix" values="0 0 0 0 0 0 0 0 0 0 0 0 0 0 0 0 0 0 0.02 0"/>
<feBlend mode="normal" in2="effect4_dropShadow_4103_162" result="effect5_dropShadow_4103_162"/>
<feBlend mode="normal" in="SourceGraphic" in2="effect5_dropShadow_4103_162" result="shape"/>
</filter>
<filter id="filter1_f_4103_162" x="59.3972" y="14.944" width="94.8029" height="88.8029" filterUnits="userSpaceOnUse" color-interpolation-filters="sRGB">
<feFlood flood-opacity="0" result="BackgroundImageFix"/>
<feBlend mode="normal" in="SourceGraphic" in2="BackgroundImageFix" result="shape"/>
<feGaussianBlur stdDeviation="5.70071" result="effect1_foregroundBlur_4103_162"/>
</filter>
<linearGradient id="paint0_linear_4103_162" x1="70.7977" y1="59.3446" x2="142.798" y2="59.3446" gradientUnits="userSpaceOnUse">
<stop stop-color="#CE4623"/>
<stop offset="0.46875" stop-color="#CFBD2C"/>
<stop offset="1" stop-color="#3C95DD" stop-opacity="0.25"/>
</linearGradient>
</defs>
</svg>
